<svg width="1202" height="278" viewBox="0 0 1202 278" fill="none" xmlns="http://www.w3.org/2000/svg">
<path fill-rule="evenodd" clip-rule="evenodd" d="M938.344 2.46388C941.729 4.95702 943.775 10.6008 942.928 15.1067C941.107 24.785 930.616 28.1148 923.693 21.2109C920.718 18.2444 920.281 17.1635 920.281 12.7807C920.281 4.90999 926.099 -0.957044 932.826 0.129886C934.481 0.397114 936.965 1.44801 938.344 2.46388ZM971.97 14.0188C976.831 18.8669 976.451 26.3843 971.054 32.0912C968.183 35.1278 967.074 35.6233 963.148 35.6233C957.158 35.6233 955.629 34.9517 953.864 31.5477C951.957 27.8706 951.994 22.2869 953.95 18.5146C957.404 11.8519 967.317 9.37881 971.97 14.0188ZM907.702 19.0301C914.509 21.8665 916.132 31.2195 910.574 35.5802C905.883 39.2603 899.378 37.615 896.745 32.0802C895.891 30.2847 895.191 28.1158 895.191 27.2621C895.191 24.1114 897.736 20.2871 900.687 19.005C904.46 17.3656 903.7 17.3626 907.702 19.0301ZM946.845 37.9072C952.87 41.3091 955.406 45.7329 955.406 52.836C955.406 62.6524 951.45 67.6507 943.679 67.6507C937.314 67.6507 928.745 64.0295 923.699 59.2074C919.754 55.4382 919.277 54.4964 919.277 50.4739C919.277 46.8048 919.884 45.2845 922.539 42.308C924.333 40.2972 927.155 37.9733 928.811 37.1435C933.389 34.8506 942.087 35.2189 946.845 37.9072ZM983.657 42.7093C984.772 43.3048 986.344 45.3696 987.153 47.2992C991.386 57.4049 979.037 66.3495 971.386 58.72C967.144 54.4894 967.316 49.5672 971.865 45.0313C975.486 41.4202 979.691 40.5925 983.657 42.7093Z" fill="#FFE9C4"/>
<path fill-rule="evenodd" clip-rule="evenodd" d="M605.986 48.0102C607.859 49.7189 609.941 53.6083 610.615 56.6538C612.958 67.2445 604.627 78.4491 594.94 77.737C593.32 77.6179 590.309 75.5667 588.248 73.1775C585.185 69.6294 584.585 67.6636 584.97 62.4304C585.542 54.652 588.887 48.842 594.163 46.4607C599.532 44.0402 601.991 44.3615 605.986 48.0102ZM567.388 52.5856C575.045 60.6001 575.533 70.0916 568.596 76.0787C564.725 79.4192 563.359 79.8154 559.177 78.8178C553.395 77.4381 550.292 74.498 547.782 68.0196C541.828 52.652 556.451 41.1405 567.388 52.5856ZM637.279 73.4116C641.133 77.452 639.749 85.9639 634.501 90.4931C626.02 97.8125 616.058 93.8449 616.822 83.452C617.591 72.9843 630.724 66.5397 637.279 73.4116ZM542.018 83.561C546.281 89.0494 546.179 95.226 541.763 99.037C535.104 104.784 522.277 97.9858 521.041 88.0512C520.586 84.3914 521.208 82.9565 524.475 80.1367C527.827 77.2438 529.267 76.8836 533.493 77.8761C536.688 78.6272 539.798 80.7009 542.018 83.561ZM595.13 90.4654C604.243 95.7329 608.646 107.636 602.979 111.676C601.736 112.562 595.428 112.966 587.949 112.642C580.859 112.334 572.382 112.365 569.112 112.709C561.707 113.489 559.111 111.331 559.591 104.795C560.169 96.9321 563.514 92.8545 572.666 88.8586C580.007 85.6523 587.766 86.2072 595.13 90.4654Z" fill="#FFE9C4"/>
<path fill-rule="evenodd" clip-rule="evenodd" d="M1154.51 45.7513C1163.37 54.7012 1154.73 69.973 1143.12 65.8844C1138.51 64.2593 1136.88 61.4316 1136.92 55.1008C1136.95 50.1168 1139.42 45.9436 1143.77 43.523C1147.85 41.2568 1150.63 41.8334 1154.51 45.7513ZM1184.94 56.1303C1188.72 57.8691 1191.28 63.6308 1190.2 67.9647C1188.89 73.237 1183.08 78.737 1177.94 79.5615C1173.94 80.2052 1172.79 79.7816 1169.49 76.4531C1164.63 71.5399 1164.47 66.4598 1169.02 61.0016C1174.04 54.9693 1179.07 53.4302 1184.94 56.1303ZM1158.11 82.6422C1164.24 86.1212 1166.93 90.9737 1166.93 98.5261C1166.93 106.485 1163.66 112.904 1158.09 115.918C1150.42 120.068 1143.17 116.005 1138 104.655C1133.64 95.0939 1136.2 86.3147 1144.55 82.1565C1150.13 79.3807 1152.52 79.4667 1158.11 82.6422ZM1198.32 92.5431C1200.53 94.7714 1201.98 97.5726 1201.98 99.596C1201.98 101.619 1200.53 104.421 1198.32 106.649C1193.38 111.637 1184.65 111.92 1180.02 107.241C1172.9 100.054 1178.77 88.8466 1189.65 88.8466C1193.52 88.8466 1195.49 89.69 1198.32 92.5431ZM1184.77 123.242C1188.04 127.068 1187.56 132.449 1183.66 135.546C1181.85 136.988 1179.39 138.168 1178.2 138.168C1174.05 138.168 1169.43 133.227 1169.43 128.786C1169.43 120.263 1179.2 116.732 1184.77 123.242Z" fill="#FFE9C4"/>
<path d="M54.7498 188.512C57.0573 188.932 59.8892 189.351 63.2455 189.771C66.6018 189.981 69.7483 190.086 72.6851 190.086C79.8173 190.086 86.3201 189.037 92.1937 186.939C98.277 184.841 103.416 181.59 107.612 177.185C112.017 172.78 115.373 167.116 117.681 160.193C120.198 153.061 121.457 144.566 121.457 134.706C121.457 115.827 117.051 101.668 108.241 92.2282C99.4307 82.5788 87.6836 77.7541 72.9998 77.7541C70.063 77.7541 67.0213 77.8589 63.8748 78.0687C60.938 78.2785 57.8964 78.5931 54.7498 79.0127V188.512ZM72.3705 234.452C68.8044 234.452 64.7139 234.347 60.099 234.137C55.484 233.927 50.6593 233.508 45.6249 232.879C40.8002 232.249 35.8706 231.41 30.8361 230.361C26.0114 229.522 21.5014 228.264 17.306 226.586C5.76866 222.18 0 214.524 0 203.616V56.6722C0 52.2671 1.15373 48.9108 3.4612 46.6033C5.97843 44.0861 9.33474 42.0932 13.5301 40.6249C22.5502 37.6881 32.0947 35.8002 42.1637 34.9611C52.2326 33.9122 61.2527 33.3878 69.2239 33.3878C85.5859 33.3878 100.375 35.3806 113.59 39.3662C127.015 43.3519 138.448 49.5401 147.887 57.9308C157.537 66.1119 164.984 76.4954 170.228 89.0816C175.472 101.668 178.094 116.561 178.094 133.763C178.094 150.544 175.577 165.228 170.543 177.814C165.508 190.191 158.271 200.679 148.831 209.28C139.602 217.67 128.484 223.963 115.478 228.159C102.472 232.354 88.1032 234.452 72.3705 234.452Z" fill="#FFE9C4"/>
<path d="M346.282 160.603C346.282 172.308 344.488 182.786 340.901 192.036C337.314 201.099 332.217 208.745 325.609 214.975C319.19 221.205 311.45 225.925 302.388 229.134C293.326 232.344 283.225 233.948 272.086 233.948C260.948 233.948 250.847 232.249 241.785 228.851C232.723 225.453 224.888 220.639 218.281 214.408C211.862 207.989 206.859 200.249 203.272 191.187C199.684 182.125 197.891 171.93 197.891 160.603C197.891 149.464 199.684 139.363 203.272 130.301C206.859 121.239 211.862 113.593 218.281 107.363C224.888 100.944 232.723 96.0355 241.785 92.6372C250.847 89.2389 260.948 87.5398 272.086 87.5398C283.225 87.5398 293.326 89.3333 302.388 92.9204C311.45 96.3187 319.19 101.227 325.609 107.646C332.217 113.876 337.314 121.522 340.901 130.585C344.488 139.647 346.282 149.653 346.282 160.603ZM247.166 160.603C247.166 172.119 249.337 180.992 253.679 187.222C258.21 193.264 264.44 196.284 272.37 196.284C280.299 196.284 286.34 193.169 290.494 186.939C294.836 180.709 297.007 171.93 297.007 160.603C297.007 149.275 294.836 140.591 290.494 134.549C286.151 128.319 280.016 125.204 272.086 125.204C264.157 125.204 258.021 128.319 253.679 134.549C249.337 140.591 247.166 149.275 247.166 160.603Z" fill="#FFE9C4"/>
<path d="M485.876 188.355C485.876 202.703 480.496 213.936 469.734 222.054C458.973 230.173 443.115 234.232 422.159 234.232C414.229 234.232 406.867 233.665 400.07 232.532C393.273 231.4 387.421 229.701 382.512 227.435C377.793 224.981 374.017 221.96 371.185 218.373C368.542 214.786 367.22 210.538 367.22 205.63C367.22 201.099 368.164 197.323 370.052 194.302C371.94 191.093 374.205 188.449 376.849 186.373C382.324 189.393 388.554 192.131 395.539 194.585C402.713 196.851 410.926 197.983 420.176 197.983C426.029 197.983 430.466 197.134 433.486 195.435C436.696 193.736 438.301 191.47 438.301 188.638C438.301 185.995 437.168 183.918 434.902 182.408C432.637 180.898 428.861 179.671 423.575 178.727L415.079 177.027C398.654 173.818 386.383 168.815 378.264 162.018C370.335 155.033 366.371 145.122 366.371 132.284C366.371 125.298 367.881 118.974 370.902 113.31C373.922 107.646 378.17 102.926 383.645 99.1506C389.12 95.3747 395.633 92.4484 403.185 90.3717C410.926 88.295 419.421 87.2566 428.672 87.2566C435.657 87.2566 442.171 87.823 448.212 88.9557C454.442 89.8997 459.823 91.4101 464.354 93.4868C468.885 95.5635 472.472 98.301 475.115 101.699C477.758 104.909 479.08 108.779 479.08 113.31C479.08 117.652 478.23 121.428 476.531 124.638C475.021 127.658 473.038 130.207 470.584 132.284C469.074 131.34 466.808 130.396 463.787 129.452C460.767 128.319 457.463 127.375 453.876 126.62C450.289 125.676 446.607 124.921 442.831 124.354C439.244 123.788 435.941 123.505 432.92 123.505C426.69 123.505 421.876 124.26 418.477 125.77C415.079 127.092 413.38 129.263 413.38 132.284C413.38 134.36 414.324 136.059 416.212 137.381C418.1 138.703 421.687 139.93 426.973 141.062L435.752 143.045C453.876 147.198 466.714 152.956 474.265 160.319C482.006 167.493 485.876 176.839 485.876 188.355Z" fill="#FFE9C4"/>
<path d="M773.105 127.155C781.916 127.155 788.628 125.162 793.243 121.176C798.068 116.981 800.48 110.688 800.48 102.297C800.48 94.3258 797.963 88.2425 792.929 84.0472C788.104 79.642 780.972 77.4394 771.532 77.4394C768.176 77.4394 765.344 77.5443 763.036 77.7541C760.939 77.7541 758.736 77.9638 756.429 78.3834V127.155H773.105ZM756.743 228.159C754.436 228.788 750.765 229.417 745.73 230.047C740.906 230.676 736.081 230.991 731.256 230.991C726.432 230.991 722.131 230.571 718.356 229.732C714.789 229.103 711.748 227.844 709.231 225.956C706.713 224.068 704.825 221.446 703.567 218.09C702.308 214.734 701.679 210.328 701.679 204.874V56.6722C701.679 52.2671 702.833 48.9108 705.14 46.6033C707.657 44.0861 711.014 42.0932 715.209 40.6249C722.341 38.1076 730.417 36.3246 739.437 35.2757C748.667 34.0171 757.897 33.3878 767.127 33.3878C796.075 33.3878 818.206 39.576 833.519 51.9524C848.832 64.3288 856.489 81.1104 856.489 102.297C856.489 112.576 854.811 121.911 851.454 130.301C848.308 138.482 843.483 145.614 836.98 151.698C830.687 157.571 822.611 162.186 812.752 165.543C803.102 168.689 791.88 170.262 779.084 170.262H756.743V228.159Z" fill="#FFE9C4"/>
<path d="M951.563 233.948C940.424 233.948 930.041 232.438 920.412 229.417C910.973 226.208 902.666 221.488 895.492 215.258C888.506 209.028 882.937 201.193 878.783 191.753C874.819 182.314 872.836 171.269 872.836 158.62C872.836 146.16 874.819 135.493 878.783 126.62C882.937 117.558 888.317 110.195 894.925 104.531C901.533 98.6786 909.085 94.4307 917.58 91.7876C926.076 88.9557 934.76 87.5398 943.634 87.5398C953.64 87.5398 962.702 89.0501 970.82 92.0708C979.127 95.0915 986.206 99.2449 992.059 104.531C998.1 109.817 1002.73 116.142 1005.94 123.505C1009.33 130.868 1011.03 138.891 1011.03 147.576C1011.03 153.995 1009.24 158.903 1005.65 162.302C1002.06 165.7 997.062 167.871 990.643 168.815L920.695 179.293C922.772 185.523 927.02 190.243 933.439 193.452C939.858 196.473 947.221 197.983 955.528 197.983C963.268 197.983 970.537 197.039 977.333 195.152C984.318 193.075 989.982 190.715 994.324 188.072C997.345 189.96 999.894 192.603 1001.97 196.001C1004.05 199.399 1005.09 202.986 1005.09 206.762C1005.09 215.258 1001.12 221.583 993.192 225.736C987.15 228.945 980.354 231.117 972.802 232.249C965.25 233.382 958.171 233.948 951.563 233.948ZM943.634 122.655C939.103 122.655 935.138 123.41 931.74 124.921C928.53 126.431 925.887 128.413 923.81 130.868C921.734 133.133 920.129 135.776 918.996 138.797C918.052 141.629 917.486 144.555 917.297 147.576L965.722 139.647C965.156 135.871 963.079 132.095 959.492 128.319C955.905 124.543 950.619 122.655 943.634 122.655Z" fill="#FFE9C4"/>
<path d="M1082.35 182.125C1082.35 187.033 1083.86 190.526 1086.88 192.603C1090.09 194.68 1094.52 195.718 1100.19 195.718C1103.02 195.718 1105.95 195.529 1108.97 195.152C1111.99 194.585 1114.63 193.924 1116.9 193.169C1118.6 195.246 1120.01 197.606 1121.14 200.249C1122.47 202.703 1123.13 205.724 1123.13 209.311C1123.13 216.485 1120.39 222.338 1114.91 226.869C1109.63 231.4 1100.19 233.665 1086.6 233.665C1069.98 233.665 1057.14 229.889 1048.08 222.338C1039.21 214.786 1034.77 202.514 1034.77 185.523V64.3183C1036.85 63.752 1039.77 63.1856 1043.55 62.6192C1047.52 61.864 1051.67 61.4864 1056.01 61.4864C1064.32 61.4864 1070.74 62.9968 1075.27 66.0175C1079.99 68.8493 1082.35 74.9851 1082.35 84.4247V102.549H1119.45C1120.58 104.626 1121.62 107.269 1122.56 110.478C1123.69 113.499 1124.26 116.897 1124.26 120.673C1124.26 127.281 1122.75 132.095 1119.73 135.116C1116.9 137.947 1113.03 139.363 1108.12 139.363H1082.35V182.125Z" fill="#FFE9C4"/>
<path d="M586.232 278C575.093 278 564.71 276.49 555.081 273.469C545.642 270.26 537.335 265.54 530.161 259.31C523.176 253.079 517.606 245.245 513.453 235.805C509.488 226.365 507.506 215.321 507.506 202.672C507.506 190.211 509.488 179.545 513.453 170.671C517.606 161.609 522.987 154.247 529.594 148.583C536.202 142.73 543.754 138.482 552.25 135.839C560.745 133.007 569.43 131.591 578.303 131.591C588.309 131.591 597.371 133.102 605.489 136.122C613.796 139.143 620.876 143.297 626.728 148.583C632.77 153.869 637.395 160.193 640.604 167.556C644.003 174.919 645.702 182.943 645.702 191.627C645.702 198.046 643.908 202.955 640.321 206.353C636.734 209.752 631.731 211.923 625.312 212.867L555.365 223.345C557.441 229.575 561.689 234.295 568.108 237.504C574.527 240.525 581.89 242.035 590.197 242.035C597.937 242.035 605.206 241.091 612.002 239.203C618.988 237.126 624.651 234.767 628.994 232.123C632.014 234.011 634.563 236.654 636.64 240.053C638.717 243.451 639.755 247.038 639.755 250.814C639.755 259.31 635.79 265.634 627.861 269.788C621.82 272.997 615.023 275.168 607.471 276.301C599.92 277.434 592.84 278 586.232 278ZM578.303 166.707C573.772 166.707 569.807 167.462 566.409 168.972C563.2 170.483 560.556 172.465 558.48 174.919C556.403 177.185 554.798 179.828 553.666 182.849C552.722 185.68 552.155 188.607 551.966 191.627L600.392 183.698C599.825 179.922 597.749 176.146 594.162 172.371C590.574 168.595 585.288 166.707 578.303 166.707Z" fill="#FFE9C4"/>
</svg>
