<svg xmlns="http://www.w3.org/2000/svg" width="679" height="517" viewBox="0 0 679 517" fill="white">
<path d="M515.712 436.236C515.712 443.18 517.849 448.12 522.122 451.058C526.661 453.995 532.937 455.464 540.949 455.464C544.955 455.464 549.094 455.197 553.367 454.663C557.64 453.862 561.379 452.927 564.583 451.859C566.987 454.797 568.99 458.135 570.592 461.874C572.462 465.345 573.396 469.618 573.396 474.692C573.396 484.84 569.524 493.119 561.779 499.529C554.302 505.938 540.949 509.143 521.721 509.143C498.22 509.143 480.06 503.801 467.241 493.119C454.69 482.437 448.414 465.078 448.414 441.043V269.593C451.352 268.792 455.491 267.991 460.832 267.19C466.44 266.121 472.316 265.587 478.458 265.587C490.208 265.587 499.288 267.724 505.698 271.997C512.374 276.002 515.712 284.682 515.712 298.035V323.672H568.189C569.791 326.61 571.26 330.348 572.595 334.888C574.197 339.161 574.999 343.968 574.999 349.309C574.999 358.656 572.862 365.466 568.589 369.739C564.583 373.745 559.109 375.748 552.165 375.748H515.712V436.236Z" fill="#FFE9C4"/>
<path d="M317.304 516.508C303.483 515.401 290.749 512.496 279.101 507.792C267.707 502.872 257.868 496.19 249.585 487.747C241.536 479.323 235.404 469.048 231.187 456.922C227.205 444.816 225.843 430.915 227.099 415.219C228.336 399.758 231.855 386.719 237.656 376.103C243.71 365.271 251.117 356.669 259.879 350.297C268.659 343.691 278.452 339.171 289.256 336.735C300.079 334.064 310.995 333.17 322.006 334.051C334.421 335.045 345.516 337.819 355.289 342.373C365.297 346.947 373.669 352.803 380.406 359.944C387.377 367.103 392.488 375.41 395.74 384.865C399.225 394.339 400.537 404.464 399.674 415.24C399.037 423.204 396.324 429.117 391.535 432.977C386.747 436.838 380.323 439.035 372.265 439.569L284.431 445.624C286.389 453.561 291.191 459.839 298.837 464.459C306.502 468.844 315.488 471.45 325.796 472.275C335.4 473.043 344.513 472.594 353.134 470.926C362.008 469.043 369.27 466.677 374.92 463.829C378.481 466.472 381.381 470.004 383.62 474.427C385.86 478.85 386.792 483.404 386.417 488.09C385.573 498.631 380.026 506.085 369.774 510.451C361.959 513.834 353.31 515.853 343.827 516.509C334.344 517.164 325.503 517.164 317.304 516.508ZM318.518 377.624C312.896 377.174 307.901 377.717 303.535 379.254C299.402 380.809 295.926 383.006 293.105 385.845C290.303 388.45 288.05 391.57 286.344 395.206C284.892 398.626 283.898 402.201 283.364 405.93L344.239 400.901C343.911 396.159 341.709 391.268 337.634 386.226C333.558 381.185 327.186 378.317 318.518 377.624Z" fill="#FFE9C4"/>
<path d="M99.7775 367.736C111.443 367.736 120.33 365.098 126.44 359.821C132.828 354.266 136.022 345.934 136.022 334.824C136.022 324.27 132.69 316.216 126.024 310.661C119.636 304.829 110.193 301.912 97.6945 301.912C93.2507 301.912 89.5012 302.051 86.4461 302.329C83.6687 302.329 80.7524 302.607 77.6973 303.162V367.736H99.7775ZM78.1139 501.467C75.0588 502.301 70.1984 503.134 63.5327 503.967C57.1447 504.8 50.7567 505.217 44.3687 505.217C37.9807 505.217 32.2871 504.661 27.2878 503.55C22.5662 502.717 18.539 501.051 15.2062 498.551C11.8733 496.051 9.37367 492.58 7.70724 488.136C6.04081 483.692 5.2076 477.86 5.2076 470.638V274.416C5.2076 268.584 6.73516 264.14 9.79028 261.085C13.1231 257.752 17.567 255.113 23.1217 253.169C32.5648 249.836 43.2578 247.476 55.2005 246.087C67.421 244.42 79.6415 243.587 91.862 243.587C130.19 243.587 159.491 251.781 179.766 268.167C200.041 284.554 210.179 306.773 210.179 334.824C210.179 348.433 207.957 360.793 203.513 371.902C199.347 382.734 192.959 392.177 184.349 400.232C176.017 408.008 165.324 414.119 152.27 418.562C139.494 422.728 124.635 424.812 107.693 424.812H78.1139V501.467Z" fill="#FFE9C4"/>
<path d="M344.903 143.025C344.903 154.946 343.076 165.618 339.423 175.039C335.77 184.269 330.578 192.056 323.848 198.401C317.311 204.747 309.427 209.554 300.198 212.822C290.968 216.091 280.681 217.726 269.337 217.726C257.992 217.726 247.705 215.995 238.476 212.534C229.246 209.073 221.267 204.17 214.537 197.824C207.999 191.287 202.904 183.403 199.251 174.174C195.597 164.945 193.771 154.561 193.771 143.025C193.771 131.68 195.597 121.393 199.251 112.164C202.904 102.934 207.999 95.1467 214.537 88.8015C221.267 82.2639 229.246 77.2647 238.476 73.8036C247.705 70.3426 257.992 68.612 269.337 68.612C280.681 68.612 290.968 70.4387 300.198 74.092C309.427 77.5531 317.311 82.5524 323.848 89.0899C330.578 95.4352 335.77 103.223 339.423 112.452C343.076 121.681 344.903 131.872 344.903 143.025ZM243.956 143.025C243.956 154.754 246.167 163.791 250.589 170.136C255.204 176.289 261.549 179.366 269.625 179.366C277.701 179.366 283.854 176.193 288.084 169.848C292.507 163.502 294.718 154.561 294.718 143.025C294.718 131.488 292.507 122.643 288.084 116.49C283.662 110.145 277.413 106.972 269.337 106.972C261.261 106.972 255.012 110.145 250.589 116.49C246.167 122.643 243.956 131.488 243.956 143.025Z" fill="#FFE9C4"/>
<path d="M468.7 172.892C468.7 187.505 463.22 198.946 452.26 207.214C441.3 215.482 425.148 219.616 403.805 219.616C395.729 219.616 388.23 219.039 381.308 217.886C374.386 216.732 368.425 215.002 363.426 212.694C358.619 210.195 354.773 207.118 351.889 203.465C349.197 199.811 347.851 195.485 347.851 190.486C347.851 185.871 348.813 182.025 350.736 178.949C352.658 175.68 354.966 172.988 357.658 170.873C363.234 173.95 369.579 176.738 376.693 179.237C384 181.545 392.364 182.698 401.786 182.698C407.747 182.698 412.265 181.833 415.342 180.103C418.611 178.372 420.245 176.065 420.245 173.181C420.245 170.489 419.091 168.374 416.784 166.835C414.476 165.297 410.631 164.047 405.247 163.086L396.594 161.355C379.866 158.087 367.368 152.991 359.1 146.069C351.024 138.955 346.986 128.86 346.986 115.785C346.986 108.67 348.524 102.229 351.601 96.4606C354.677 90.6922 359.004 85.8852 364.58 82.0396C370.156 78.194 376.79 75.2137 384.481 73.0986C392.364 70.9835 401.017 69.926 410.439 69.926C417.553 69.926 424.187 70.5028 430.34 71.6565C436.685 72.6179 442.165 74.1561 446.78 76.2712C451.394 78.3863 455.048 81.1744 457.74 84.6354C460.432 87.9042 461.778 91.8459 461.778 96.4606C461.778 100.883 460.912 104.729 459.182 107.997C457.643 111.074 455.625 113.67 453.125 115.785C451.587 114.823 449.279 113.862 446.203 112.901C443.126 111.747 439.761 110.786 436.108 110.016C432.455 109.055 428.705 108.286 424.86 107.709C421.206 107.132 417.841 106.844 414.765 106.844C408.42 106.844 403.517 107.613 400.055 109.151C396.594 110.497 394.864 112.708 394.864 115.785C394.864 117.9 395.825 119.63 397.748 120.976C399.671 122.322 403.324 123.572 408.708 124.726L417.649 126.745C436.108 130.975 449.183 136.84 456.874 144.338C464.758 151.645 468.7 161.163 468.7 172.892Z" fill="#FFE9C4"/>
<path d="M537.092 249.068C527.062 248.032 517.852 245.705 509.462 242.089C501.261 238.32 494.219 233.297 488.339 227.019C482.628 220.758 478.342 213.185 475.48 204.298C472.789 195.428 472.031 185.298 473.209 173.907C474.368 162.687 477.146 153.266 481.542 145.644C486.126 137.87 491.656 131.74 498.134 127.255C504.629 122.6 511.825 119.477 519.721 117.888C527.635 116.128 535.588 115.662 543.578 116.487C552.589 117.419 560.608 119.622 567.638 123.098C574.837 126.591 580.826 130.99 585.604 136.295C590.553 141.618 594.129 147.744 596.334 154.673C598.709 161.619 599.492 169.003 598.684 176.823C598.087 182.604 596.015 186.857 592.468 189.584C588.922 192.31 584.215 193.799 578.346 194.052L514.382 196.978C515.673 202.781 519.059 207.427 524.54 210.914C530.039 214.232 536.529 216.277 544.01 217.05C550.98 217.771 557.613 217.597 563.91 216.53C570.393 215.31 575.713 213.712 579.869 211.736C582.414 213.717 584.463 216.334 586.017 219.588C587.571 222.841 588.172 226.168 587.82 229.568C587.03 237.219 582.871 242.545 575.344 245.547C569.605 247.875 563.282 249.198 556.377 249.515C549.471 249.832 543.043 249.683 537.092 249.068ZM540.31 148.109C536.23 147.688 532.589 147.999 529.388 149.043C526.358 150.104 523.793 151.643 521.694 153.66C519.613 155.507 517.922 157.738 516.621 160.352C515.508 162.815 514.725 165.397 514.274 168.1L558.62 165.466C558.461 162.013 556.942 158.42 554.064 154.686C551.185 150.952 546.6 148.759 540.31 148.109Z" fill="#FFE9C4"/>
<path d="M58.5494 170.969C61.017 171.418 64.0454 171.867 67.6346 172.315C71.2239 172.54 74.5888 172.652 77.7294 172.652C85.3565 172.652 92.3106 171.53 98.5918 169.287C105.097 167.044 110.593 163.567 115.08 158.856C119.791 154.145 123.38 148.088 125.848 140.685C128.539 133.058 129.885 123.973 129.885 113.429C129.885 93.24 125.175 78.0979 115.753 68.0031C106.331 57.6841 93.7688 52.5246 78.0659 52.5246C74.9253 52.5246 71.6725 52.6367 68.3076 52.8611C65.167 53.0854 61.9143 53.4219 58.5494 53.8705V170.969ZM77.3929 220.097C73.5793 220.097 69.2049 219.985 64.2697 219.76C59.3345 219.536 54.175 219.087 48.7912 218.415C43.6316 217.742 38.3599 216.844 32.9761 215.723C27.8166 214.825 22.9935 213.479 18.507 211.685C6.169 206.974 0 198.786 0 187.121V29.9797C0 25.2688 1.2338 21.6796 3.7014 19.212C6.39333 16.5201 9.98256 14.3889 14.4691 12.8187C24.1152 9.67808 34.3221 7.65914 45.0898 6.76183C55.8575 5.64019 65.5035 5.07938 74.028 5.07938C91.5255 5.07938 107.341 7.21048 121.473 11.4727C135.83 15.7349 148.056 22.3526 158.151 31.3257C168.47 40.0744 176.433 51.1786 182.042 64.6382C187.65 78.0979 190.454 94.0251 190.454 112.42C190.454 130.366 187.762 146.069 182.378 159.529C176.994 172.764 169.255 183.98 159.16 193.178C149.29 202.151 137.4 208.881 123.492 213.367C109.584 217.854 94.2174 220.097 77.3929 220.097Z" fill="#FFE9C4"/>
<path fill-rule="evenodd" clip-rule="evenodd" d="M567.787 3.94459C573.191 7.93601 576.457 16.9716 575.105 24.1853C572.198 39.6799 555.447 45.0109 544.394 33.9579C539.645 29.2086 538.946 27.4781 538.946 20.4615C538.946 7.86073 548.235 -1.5322 558.975 0.207943C561.619 0.635767 565.585 2.31822 567.787 3.94459ZM621.474 22.4436C629.236 30.2053 628.629 42.2404 620.012 51.377C615.427 56.2384 613.657 57.0316 607.388 57.0316C597.826 57.0316 595.384 55.9564 592.565 50.5069C589.521 44.6199 589.58 35.6805 592.703 29.6413C598.218 18.9745 614.046 15.0152 621.474 22.4436ZM518.862 30.4665C529.731 35.0075 532.322 49.9813 523.448 56.9627C515.957 62.8545 505.573 60.2203 501.368 51.3594C500.005 48.4848 498.888 45.0125 498.888 43.6457C498.888 38.6015 502.951 32.479 507.662 30.4264C513.687 27.8018 512.472 27.797 518.862 30.4665ZM581.36 60.6881C590.979 66.1345 595.028 73.2168 595.028 84.5886C595.028 100.304 588.711 108.306 576.305 108.306C566.141 108.306 552.46 102.509 544.404 94.789C538.105 88.7546 537.344 87.2469 537.344 80.8071C537.344 74.9329 538.313 72.499 542.551 67.7336C545.416 64.5145 549.922 60.7939 552.566 59.4656C559.874 55.7946 573.763 56.3843 581.36 60.6881ZM640.134 68.3762C641.914 69.3296 644.425 72.6352 645.716 75.7245C652.475 91.9033 632.758 106.223 620.542 94.0087C613.769 87.2356 614.044 79.3553 621.306 72.0935C627.087 66.3123 633.801 64.9872 640.134 68.3762Z" fill="#FFE9C4"/>
<path fill-rule="evenodd" clip-rule="evenodd" d="M343.154 248.684C345.316 250.657 347.72 255.148 348.498 258.664C351.203 270.892 341.584 283.829 330.399 283.006C328.53 282.869 325.054 280.501 322.673 277.742C319.137 273.646 318.445 271.376 318.889 265.334C319.549 256.353 323.411 249.645 329.503 246.895C335.702 244.1 338.541 244.471 343.154 248.684ZM298.589 253.967C307.429 263.22 307.993 274.179 299.983 281.092C295.514 284.949 293.937 285.406 289.108 284.254C282.432 282.661 278.85 279.267 275.952 271.787C269.077 254.044 285.961 240.752 298.589 253.967ZM379.285 278.012C383.734 282.677 382.136 292.505 376.077 297.735C366.285 306.186 354.782 301.604 355.664 289.605C356.553 277.519 371.716 270.078 379.285 278.012ZM269.297 289.731C274.218 296.068 274.101 303.199 269.002 307.599C261.313 314.235 246.503 306.386 245.076 294.915C244.551 290.69 245.269 289.033 249.042 285.777C252.912 282.437 254.575 282.021 259.454 283.167C263.143 284.034 266.733 286.429 269.297 289.731ZM330.619 297.703C341.141 303.784 346.224 317.527 339.681 322.192C338.247 323.215 330.963 323.682 322.328 323.307C314.142 322.951 304.355 322.987 300.579 323.384C292.03 324.285 289.032 321.793 289.586 314.247C290.254 305.169 294.115 300.461 304.682 295.847C313.158 292.145 322.116 292.786 330.619 297.703Z" fill="#FFE9C4"/>
<path fill-rule="evenodd" clip-rule="evenodd" d="M617.246 267.285C628.585 278.625 617.528 297.975 602.668 292.794C596.76 290.735 594.678 287.153 594.725 279.131C594.762 272.816 597.926 267.529 603.502 264.462C608.723 261.591 612.282 262.321 617.246 267.285ZM656.195 280.436C661.033 282.639 664.314 289.939 662.936 295.43C661.26 302.11 653.816 309.079 647.24 310.124C642.114 310.939 640.641 310.403 636.424 306.185C630.2 299.96 630 293.523 635.818 286.608C642.252 278.965 648.688 277.015 656.195 280.436ZM621.855 314.027C629.699 318.435 633.146 324.583 633.142 334.152C633.139 344.236 628.965 352.369 621.833 356.188C612.012 361.447 602.735 356.298 596.109 341.917C590.53 329.804 593.803 318.68 604.497 313.412C611.636 309.894 614.696 310.003 621.855 314.027ZM673.327 326.572C676.151 329.395 678.011 332.944 678.011 335.508C678.011 338.072 676.151 341.621 673.327 344.444C667.006 350.764 655.825 351.123 649.898 345.194C640.79 336.088 648.307 321.888 662.234 321.888C667.182 321.888 669.711 322.957 673.327 326.572ZM655.979 365.468C660.171 370.315 659.55 377.133 654.561 381.058C652.239 382.884 649.092 384.379 647.567 384.379C642.26 384.379 636.35 378.119 636.35 372.493C636.35 361.693 648.847 357.22 655.979 365.468Z" fill="#FFE9C4"/>
</svg>